# xmcd
#
# Track frame offsets: 
#        150
#        14877
#        42152
#        84879
#        110382
#        129829
#        147504
#        178180
#        191687
#        227720
#        268295
#
# Disc length: 3863 seconds
#
# Revision: 4
# Processed by: cddbd v1.5.2PL0 Copyright (c) Steve Scherf et al.
# Submitted via: ExactAudioCopyFreeDBPlugin 1.0
#
DISCID=9a0f150b
DTITLE=Dhafer Youssef - Birds requiem [Okeh 88883721842]
DYEAR=2013
DGENRE=Jazz
TTITLE0=Birds Canticum ["Birds Requiem" Suite]
TTITLE1=Sweet Blasphemy
TTITLE2=Blending Souls and Shades (to Shiraz)
TTITLE3=Ascetic Mood
TTITLE4=Fuga Hirundinum ["Birds Requiem" Suite]
TTITLE5=Khira ["Indicium Divinum" (Elegy for my mother)]
TTITLE6=39th Gülay (to Istanbul)
TTITLE7=Archaic Feathers ["Birds Requiem" Suite]
TTITLE8=Sevdah (to Jon Hassell)
TTITLE9=Ascetic Journey
TTITLE10=Whirling Birds Ceremony ["Birds Requiem" Suite]
EXTD=YEAR: 2013
EXTT0=
EXTT1=
EXTT2=
EXTT3=
EXTT4=
EXTT5=
EXTT6=
EXTT7=
EXTT8=
EXTT9=
EXTT10=
PLAYORDER=
